<svg version="1.1" id="Layer_1" xmlns="http://www.w3.org/2000/svg" xmlns:xlink="http://www.w3.org/1999/xlink" x="0px" y="0px"
	 width="100%" viewBox="0 0 576 592" enable-background="new 0 0 576 592" xml:space="preserve">
<path fill="#000000" opacity="1.000000" stroke="none" 
	d="
M577.000000,92.533882 
	C539.066956,160.871613 499.602142,227.892136 465.490631,297.866608 
	C446.515106,336.791931 425.750763,374.818726 404.383881,412.504852 
	C377.328217,460.224670 354.670410,510.169189 330.550385,559.372925 
	C329.123840,562.283020 328.327240,566.638733 324.675659,566.780212 
	C321.073669,566.919861 319.780914,562.683899 318.098694,559.928406 
	C295.591125,523.060852 275.934784,484.670929 257.577850,445.610443 
	C236.827957,401.457977 216.474792,357.118744 195.638641,313.007355 
	C182.543594,285.284332 168.746201,257.896820 149.689606,233.609467 
	C144.742599,227.304535 138.963989,221.751526 132.505585,216.959625 
	C111.103577,201.080170 88.488579,204.054993 67.119873,220.098221 
	C48.021145,234.437210 38.175858,254.260880 35.230537,277.886902 
	C28.104176,335.051483 66.925980,386.756927 125.670479,398.705627 
	C142.657669,402.160889 159.567215,402.894165 176.534210,398.629181 
	C183.171524,396.960754 189.137253,393.646545 195.636078,390.828461 
	C197.298294,394.985168 196.074860,398.448181 194.694641,401.726379 
	C191.573257,409.140137 186.039230,414.277679 178.694824,417.406464 
	C163.539841,423.862549 147.495605,424.040375 131.528152,423.087738 
	C114.891342,422.095184 98.591576,418.879242 83.023224,412.510468 
	C41.651016,395.585754 16.454332,365.286530 8.746962,321.260498 
	C2.781073,287.182190 7.310196,254.383163 26.079029,224.794220 
	C45.644047,193.950104 73.507477,174.587738 110.203354,169.976807 
	C130.271164,167.455246 149.341263,172.379486 167.993484,180.206253 
	C202.715149,194.776031 223.162933,222.409836 239.016037,254.764297 
	C255.068863,287.526337 268.531799,321.463226 284.441589,354.284912 
	C299.411224,385.167145 314.919281,415.772705 331.771179,445.680511 
	C332.563171,447.086151 333.139526,448.761871 335.979736,449.642578 
	C382.644836,365.008087 423.649109,277.438232 463.822632,189.423996 
	C460.123047,187.407318 457.446747,189.077591 454.815613,189.661484 
	C440.511292,192.835815 426.092773,194.680603 411.431030,195.507172 
	C365.996094,198.068634 323.525452,186.710312 282.045166,169.579529 
	C253.820663,157.923203 227.252731,142.872009 199.477600,130.324417 
	C175.931259,119.687187 151.431061,111.921997 125.495560,111.578354 
	C82.526260,111.009018 50.230396,130.529236 27.927166,166.908554 
	C24.543264,172.428116 22.008020,178.464722 19.008007,184.224533 
	C17.868469,186.412384 16.728899,189.401047 13.834846,188.859558 
	C10.980852,188.325577 10.918710,185.166718 10.678352,182.710327 
	C8.835072,163.872635 13.758480,146.327744 22.022406,129.790421 
	C42.484829,88.842079 76.132515,64.301987 120.106529,53.773430 
	C153.007141,45.896141 185.824081,49.047565 218.330505,56.986515 
	C246.724777,63.921165 273.601593,75.146492 300.499573,86.301422 
	C336.842163,101.373161 374.094330,113.601730 412.714478,121.319336 
	C432.850006,125.343071 453.299713,126.997757 473.780579,125.536018 
	C503.363922,123.424629 531.529053,116.334976 556.317200,99.009407 
	C564.340332,93.401665 570.809448,86.301178 576.718872,78.185043 
	C577.000000,82.689255 577.000000,87.378510 577.000000,92.533882 
z"/>
</svg>