<svg width="571" height="518" viewBox="0 0 571 518" fill="none" xmlns="http://www.w3.org/2000/svg">
<path d="M570.716 43.3191C532.783 111.657 493.319 178.677 459.207 248.652C440.232 287.577 419.467 325.604 398.1 363.29C371.045 411.01 348.387 460.954 324.267 510.158C322.84 513.068 322.044 517.424 318.392 517.565C314.79 517.705 313.497 513.469 311.815 510.714C289.308 473.846 269.651 435.456 251.294 396.396C230.544 352.243 210.191 307.904 189.355 263.793C176.26 236.07 162.463 208.682 143.406 184.395C138.459 178.09 132.68 172.537 126.222 167.745C104.82 151.865 82.2051 154.84 60.8364 170.883C41.7376 185.222 31.8923 205.046 28.947 228.672C21.8207 285.837 60.6425 337.542 119.387 349.491C136.374 352.946 153.284 353.679 170.251 349.414C176.888 347.746 182.854 344.432 189.353 341.614C191.015 345.77 189.791 349.233 188.411 352.512C185.29 359.925 179.756 365.063 172.411 368.192C157.256 374.648 141.212 374.826 125.245 373.873C108.608 372.88 92.3081 369.664 76.7397 363.296C35.3675 346.371 10.1708 316.072 2.46345 272.046C-3.50244 237.967 1.02668 205.168 19.7955 175.579C39.3605 144.735 67.224 125.373 103.92 120.762C123.988 118.24 143.058 123.165 161.71 130.991C196.432 145.561 216.879 173.195 232.733 205.55C248.785 238.312 262.248 272.248 278.158 305.07C293.128 335.952 308.636 366.558 325.488 396.466C326.28 397.871 326.856 399.547 329.696 400.428C376.361 315.793 417.366 228.223 457.539 140.209C453.84 138.193 451.163 139.863 448.532 140.447C434.228 143.621 419.809 145.466 405.148 146.292C359.713 148.854 317.242 137.496 275.762 120.365C247.537 108.708 220.969 93.6572 193.194 81.1096C169.648 70.4724 145.148 62.7072 119.212 62.3636C76.2427 61.7942 43.9469 81.3145 21.6437 117.694C18.2597 123.213 15.7245 129.25 12.7245 135.01C11.585 137.198 10.4454 140.186 7.55133 139.645C4.69734 139.111 4.6352 135.952 4.39484 133.496C2.55156 114.658 7.47497 97.113 15.7389 80.5756C36.2013 39.6273 69.849 15.0872 113.823 4.55865C146.724 -3.31864 179.541 -0.167218 212.047 7.77173C240.441 14.7064 267.318 25.9317 294.216 37.0866C330.559 52.1584 367.811 64.3869 406.431 72.1046C426.566 76.1283 447.016 77.783 467.497 76.3212C497.08 74.2098 525.246 67.1202 550.034 49.7946C558.057 44.1869 564.526 37.0864 570.435 28.9703C570.716 33.4745 570.716 38.1637 570.716 43.3191Z" fill="#3A3A3A"/>
</svg>
